<svg xmlns="http://www.w3.org/2000/svg" viewBox="0 0 80 80">
  <rect width="80" height="80" fill="#000000"/>
  <g fill="#ffffff" transform="translate(4.5, 19.5)">
    <path d="M4.08921,20.0677 L4.02518,20.0677 L4.02518,22.0405 L0,22.0405 L0,0 L4.18069,0 L4.18069,8.13904 L4.27218,8.13904 C5.1321,6.8177 6.48602,5.79918 8.66328,5.79918 C12.6244,5.79918 15.4512,9.22179 15.4512,14.1493 C15.4512,19.2694 12.7433,22.4993 8.7822,22.4993 C6.5775,22.4993 5.01317,21.545 4.08921,20.0677 Z M11.2156,14.1493 C11.2156,11.2221 10.0446,9.18509 7.71187,9.18509 C5.06806,9.18509 4.08921,11.3139 4.08921,14.241 C4.08921,17.1406 5.53462,18.985 7.86739,18.985 C10.0172,18.985 11.2156,17.1957 11.2156,14.1493 Z"/>
    <path d="M25.8814,20.2802 L25.8174,20.2802 C25.0215,21.4822 23.878,22.409 21.1793,22.409 C17.95,22.409 15.6813,20.7115 15.6813,17.5733 C15.6813,14.0864 18.508,12.9762 22.0118,12.4898 C24.6281,12.1228 25.8265,11.9026 25.8265,10.7005 C25.8265,9.56272 24.9392,8.81947 23.1827,8.81947 C21.2159,8.81947 20.2645,9.52602 20.1364,11.04 L16.4223,11.04 C16.5412,8.26892 18.6087,5.82812 23.2102,5.82812 C27.9397,5.82812 29.8517,7.95694 29.8517,11.6548 L29.8517,19.7021 C29.8517,20.9042 30.0347,21.6107 30.4006,21.8952 L30.4006,22.0511 L26.3754,22.0511 C26.1193,21.73 25.9729,20.9959 25.8814,20.2802 Z M25.9089,16.463 L25.9089,14.0864 C25.1679,14.5177 24.0335,14.7655 22.9906,15.0132 C20.8042,15.5087 19.7339,15.995 19.7339,17.4815 C19.7339,18.9589 20.7127,19.4819 22.1947,19.4819 C24.5915,19.4819 25.9089,18.0046 25.9089,16.463 Z"/>
    <path d="M31.3501,6.22951 L35.3753,6.22951 L35.3753,8.34914 L35.4668,8.34914 C36.3267,6.89935 37.8636,5.78906 40.05,5.78906 C42.0443,5.78906 43.6452,6.89935 44.4136,8.56019 L44.4777,8.56019 C45.5572,6.83512 47.213,5.78906 49.2073,5.78906 C52.528,5.78906 54.4034,7.9454 54.4034,11.3955 L54.4034,22.0304 L50.2227,22.0304 L50.2227,12.1113 C50.2227,10.322 49.3353,9.3952 47.7985,9.3952 C46.0512,9.3952 44.9717,10.7532 44.9717,12.8453 L44.9717,22.0304 L40.791,22.0304 L40.791,12.1113 C40.791,10.322 39.9036,9.3952 38.3667,9.3952 C36.6743,9.3952 35.54,10.7532 35.54,12.8453 L35.54,22.0304 L31.3593,22.0304 L31.3593,6.22951 L31.3501,6.22951 Z"/>
    <path d="M4.08921,37.8041 L4.02518,37.8041 L4.02518,39.7769 L0,39.7769 L0,17.7363 L4.18069,17.7363 L4.18069,25.8754 L4.27218,25.8754 C5.1321,24.554 6.48602,23.5355 8.66328,23.5355 C12.6244,23.5355 15.4512,26.9581 15.4512,31.8856 C15.4512,37.0058 12.7433,40.2357 8.7822,40.2357 C6.5775,40.2357 5.01317,39.2814 4.08921,37.8041 Z M11.2156,31.8856 C11.2156,28.9585 10.0446,26.9214 7.71187,26.9214 C5.06806,26.9214 4.08921,29.0502 4.08921,31.9774 C4.08921,34.8769 5.53462,36.7213 7.86739,36.7213 C10.0172,36.7213 11.2156,34.932 11.2156,31.8856 Z"/>
    <path d="M26.4004,39.7789 L26.4004,37.9253 L26.3089,37.9253 C25.2295,39.3751 24.0036,40.2101 21.7898,40.2101 C18.286,40.2101 16.3192,37.962 16.3192,34.5119 L16.3192,23.9688 L20.4633,23.9688 L20.4633,33.8053 C20.4633,35.6589 21.2958,36.6682 23.0796,36.6682 C25.0465,36.6682 26.2449,35.1909 26.2449,33.0896 L26.2449,23.9688 L30.4256,23.9688 L30.4256,39.7789 L26.4004,39.7789 Z"/>
    <path d="M31.1063,34.6564 L34.9759,34.6564 C35.2504,36.4732 36.5403,37.2807 38.4156,37.2807 C40.2635,37.2807 41.3064,36.5741 41.3064,35.4638 C41.3064,33.9498 39.3121,33.803 37.1623,33.3717 C34.3356,32.8212 31.5728,32.0504 31.5728,28.5911 C31.5728,25.1685 34.3996,23.5352 37.9948,23.5352 C42.1389,23.5352 44.4442,25.5997 44.7553,28.7746 L40.9771,28.7746 C40.7941,27.0771 39.7147,26.4623 37.9308,26.4623 C36.3024,26.4623 35.2229,27.0771 35.2229,28.2149 C35.2229,29.5729 37.3087,29.6922 39.5591,30.1602 C42.2029,30.7107 45.1212,31.454 45.1212,35.1519 C45.1212,38.3267 42.4134,40.2353 38.4797,40.2353 C33.9056,40.2353 31.3533,38.0148 31.1063,34.6564 Z"/>
    <path d="M45.3332,31.8479 C45.3332,27.1591 48.4984,23.5254 53.1091,23.5254 C58.1772,23.5254 60.885,27.4068 60.885,33.05 L49.4499,33.05 C49.7609,35.4816 51.1057,36.9956 53.475,36.9956 C55.1034,36.9956 56.0548,36.2524 56.5214,35.0503 L60.638,35.0503 C60.0525,37.8582 57.5642,40.2256 53.5116,40.2256 C48.288,40.2347 45.3332,36.5644 45.3332,31.8479 Z M49.5139,30.1596 L56.5214,30.1596 C56.4024,28.1592 55.076,26.7645 53.1731,26.7645 C50.9593,26.7645 49.8798,28.095 49.5139,30.1596 Z"/>
    <path d="M65.6228,26.4895 L65.7142,26.4895 C66.6656,24.7002 67.7451,23.7734 69.5839,23.7734 C70.0413,23.7734 70.3249,23.801 70.5719,23.8927 L70.5719,27.5631 L70.4804,27.5631 C67.7451,27.2878 65.7783,28.7376 65.7783,32.0593 L65.7783,39.7671 L61.5976,39.7671 L61.5976,23.9661 L65.6228,23.9661 L65.6228,26.4895 Z"/>
  </g>
</svg>
